Coordinates
version=1
nRows=14
nColumns=36
inDegrees=yes

Units are S.I. units (second, meters, Newtons, ...)
If the header above contains a line with 'inDegrees', this indicates whether rotational values are in degrees (yes) or radians (no).

endheader
time	pelvis_tilt	pelvis_list	pelvis_rotation	pelvis_tx	pelvis_ty	pelvis_tz	hip_flexion_r	hip_adduction_r	hip_rotation_r	knee_angle_r	knee_angle_r_beta	ankle_angle_r	subtalar_angle_r	mtp_angle_r	hip_flexion_l	hip_adduction_l	hip_rotation_l	knee_angle_l	knee_angle_l_beta	ankle_angle_l	subtalar_angle_l	mtp_angle_l	lumbar_extension	lumbar_bending	lumbar_rotation	arm_flex_r	arm_add_r	arm_rot_r	elbow_flex_r	pro_sup_r	arm_flex_l	arm_add_l	arm_rot_l	elbow_flex_l	pro_sup_l
      1.91000000	    -34.39344846	     -2.78926673	     -9.21878001	     -0.24219925	      0.70089210	     -0.55685358	     82.94390229	     14.26213030	      6.23230406	     75.48261804	      1.31742021	     18.62691347	    -19.52181791	     -7.48260851	     86.57869391	    -19.28540497	      8.82546132	     77.02416442	      1.34432527	     26.18691539	     -5.00465844	     -7.48260851	    -33.00203168	      5.00065562	      3.43428419	     13.00217341	    -14.23257722	      7.05703734	     58.01422316	     99.44885502	     14.24437580	    -20.24341429	      2.11718243	     49.06486870	     70.65394770
      1.92000000	    -33.94497536	     -2.93470712	     -9.43396872	     -0.24122954	      0.70385619	     -0.55639324	     81.99089672	     14.54268449	      6.28578647	     74.84528875	      1.30629672	     17.99260542	    -20.47550746	     -7.48312353	     85.82932482	    -19.46140679	      9.01234784	     76.86387346	      1.34152767	     26.48312314	     -4.31130156	     -7.48312353	    -32.41405364	      5.25822698	      4.17125270	     17.53443160	    -14.15155415	      9.78856116	     56.41203082	     99.24610540	     20.02091555	    -19.84857852	      4.11892074	     46.60696453	     70.49241507
      1.93000000	    -32.54745469	     -2.63070217	     -7.84079171	     -0.24006983	      0.70974860	     -0.56293502	     80.01625945	     12.00786897	      6.19248927	     74.42892823	      1.29902986	     18.31931312	    -19.95478089	     -7.48341627	     83.58831698	    -16.83890706	      8.78328466	     75.91419499	      1.32495265	     25.70156586	     -5.35801074	     -7.48341627	    -33.25891251	      6.16320744	      3.01864857	     22.21492196	    -14.05899023	     10.55701371	     57.53676100	     99.34366509	     25.30935079	    -19.22104868	      4.65812067	     47.39920953	     70.67997908
      1.94000000	    -30.96704514	     -2.34567664	     -5.73830861	     -0.23861551	      0.71563356	     -0.57107365	     77.97748757	      8.61339101	      5.57860381	     74.34654789	      1.29759205	     20.05336478	    -17.49044246	     -7.48413487	     81.26689477	    -13.54268047	      8.74095823	     74.88020610	      1.30690614	     23.64289210	     -8.27785191	     -7.48413487	    -34.00951088	      7.44155480	      1.32676052	     27.16206453	    -14.14746788	     11.62113367	     59.12915804	     99.61009963	     30.52933369	    -18.66748278	      5.34116060	     48.79711510	     71.11819782
      1.95000000	    -29.82679644	     -2.52878712	     -4.97016953	     -0.23700678	      0.71897348	     -0.57379998	     76.46426388	      7.44695582	      5.01162167	     74.20494912	      1.29512068	     20.62883000	    -16.80122620	     -7.48452371	     79.83349470	    -12.50119206	      9.03397389	     74.57613372	      1.30159908	     23.15581220	     -8.84059036	     -7.48452371	    -33.96881816	      8.23188378	      0.88819822	     31.56648106	    -13.88185367	     11.89858697	     61.47487647	     99.83724337	     35.36162493	    -18.40096935	      5.65261076	     50.92244289	     71.58651248
      1.96000000	    -29.16651085	     -2.72904963	     -5.15380502	     -0.23572123	      0.72012326	     -0.57314661	     75.60589814	      7.65799942	      4.81220468	     74.12628926	      1.29374781	     20.98673022	    -16.51123246	     -7.48485134	     79.11910677	    -12.67675225	      9.32383407	     74.75319502	      1.30468938	     22.84273989	     -9.30679622	     -7.48485134	    -33.06408440	      8.38451703	      1.15172131	     35.76380114	    -13.55059933	     12.14466698	     64.15820660	    100.06955759	     40.15126339	    -18.49425477	      6.46130219	     53.42234170	     72.22529559
      1.97000000	    -28.24009329	     -2.87722950	     -5.26973633	     -0.23450175	      0.72169441	     -0.57314226	     74.51105679	      7.69014276	      4.58783522	     74.08417658	      1.29301280	     21.07205505	    -16.35422497	     -7.48502763	     78.10593078	    -12.63683498	      9.59766939	     74.94832419	      1.30809503	     22.60149107	     -9.72005065	     -7.48502763	    -32.36570276	      8.51256867	      1.29239042	     40.42428996	    -13.41442719	     12.40529468	     66.99617144	    100.31749129	     45.40319340	    -18.63073990	      7.42742862	     56.12700808	     72.86497655
      1.98000000	    -27.12701045	     -2.87100669	     -5.25083954	     -0.23334402	      0.72342408	     -0.57384661	     73.29176615	      7.53138391	      4.59905471	     74.21338867	      1.29526798	     21.47801299	    -16.08453653	     -7.48558679	     76.89801764	    -12.30641806	      9.72441883	     75.19049749	      1.31232175	     22.04832738	    -10.92507833	     -7.48558679	    -31.81995152	      8.49231849	      1.64925249	     45.11542034	    -14.07084152	     12.41234723	     70.94511302	    100.80342078	     51.54339526	    -18.89317312	     10.41979888	     58.56132105	     74.48819215
      1.99000000	    -25.72931317	     -2.84879936	     -5.25961926	     -0.23197719	      0.72547749	     -0.57447183	     71.77344314	      7.43529419	      4.67627163	     74.36428104	      1.29790155	     21.67475236	    -15.99459168	     -7.48613458	     75.36974163	    -12.09079582	      9.69939710	     75.47344973	      1.31726020	     21.80641458	    -11.63856149	     -7.48613458	    -31.48100896	      8.41761258	      1.90966560	     50.37053000	    -14.87929507	     12.71666572	     74.70072440	    101.32422123	     58.07577170	    -18.96452899	     13.05328977	     60.65304315	     76.08299351
      2.00000000	    -24.31136261	     -2.80719881	     -5.33114489	     -0.23058354	      0.72738626	     -0.57492914	     70.28714457	      7.35392773	      4.68666119	     74.58271546	      1.30171395	     21.81781682	    -15.95026812	     -7.48662401	     73.80108964	    -11.91872985	      9.64432720	     75.77373257	      1.32250112	     21.63590152	    -12.36475960	     -7.48662401	    -31.05831771	      8.27263772	      2.07650630	     56.14873338	    -15.82388375	     13.50200097	     78.08632494	    101.57997917	     64.83238636	    -18.98306375	     15.62814522	     62.59299583	     77.12000064
      2.01000000	    -22.90158443	     -2.75642849	     -5.47351472	     -0.22916916	      0.72942398	     -0.57534962	     68.81993265	      7.31360821	      4.70955941	     74.77881569	      1.30513654	     21.83986865	    -15.91856277	     -7.48700398	     72.15252113	    -11.71503535	      9.64735288	     76.00566492	      1.32654910	     21.45878329	    -13.20838350	     -7.48700398	    -30.62862177	      8.09782648	      2.19357396	     62.52033369	    -16.85650953	     14.55124888	     81.02281883	    101.69808226	     71.83468169	    -19.02518381	     18.08123212	     64.32450564	     77.71436725
      2.02000000	    -21.61199744	     -2.70214778	     -5.68489319	     -0.22743675	      0.73193494	     -0.57575601	     67.34127569	      7.33879958	      4.83449618	     74.78362729	      1.30522052	     21.67133407	    -15.84634119	     -7.48722533	     70.46690565	    -11.55049426	      9.63436570	     76.04357373	      1.32721074	     21.32852711	    -13.92925814	     -7.48722533	    -30.13844070	      7.96991973	      2.28226187	     69.34922686	    -17.83335864	     15.67066865	     83.52585080	    101.76023460	     78.82077928	    -19.04800914	     19.85953886	     66.10170586	     78.05113762
      2.03000000	    -20.71023587	     -2.55108917	     -6.01455041	     -0.22552453	      0.73454581	     -0.57613472	     66.23012017	      7.41944581	      5.11812226	     74.70365120	      1.30382468	     21.52354893	    -15.89063409	     -7.48755679	     69.10376791	    -11.49105765	      9.30984658	     75.97059592	      1.32593703	     20.91037544	    -15.18576686	     -7.48755679	    -29.20754559	      7.75120641	      2.48430593	     76.46809191	    -19.01230897	     17.22569575	     85.56479027	    101.66940074	     86.16438509	    -19.33018063	     22.94174111	     67.33789028	     78.30987045
      2.04000000	    -20.10226312	     -2.34608218	     -6.32659155	     -0.22313412	      0.73828348	     -0.57656162	     65.21872693	      7.40446150	      5.40343952	     74.28413431	      1.29650273	     21.13455857	    -15.83125213	     -7.48789946	     67.80022729	    -11.41410464	      8.89196372	     75.50457149	      1.31780337	     20.33047926	    -16.24055429	     -7.48789946	    -28.09327091	      7.60857736	      2.63849681	     83.73733577	    -20.04755758	     18.73354059	     87.41917617	    101.47522734	     93.33653907	    -19.76406288	     25.51757765	     68.87053305	     78.53290696
